# Tiled2Unity generated file. Do not modify by hand.
# Wavefront file for 'Level_2_mesh_0001.obj'

# Vertices (Count = 1076)
v -66 -51 0
v -67 -51 0
v -67 -50 0
v -66 -50 0
v -68 -51 0
v -69 -51 0
v -69 -50 0
v -68 -50 0
v -69 -51 0
v -70 -51 0
v -70 -50 0
v -69 -50 0
v -64 -52 0
v -65 -52 0
v -65 -51 0
v -64 -51 0
v -65 -52 0
v -66 -52 0
v -66 -51 0
v -65 -51 0
v -66 -52 0
v -67 -52 0
v -67 -51 0
v -66 -51 0
v -67 -52 0
v -68 -52 0
v -68 -51 0
v -67 -51 0
v -68 -52 0
v -69 -52 0
v -69 -51 0
v -68 -51 0
v -69 -52 0
v -70 -52 0
v -70 -51 0
v -69 -51 0
v -70 -52 0
v -71 -52 0
v -71 -51 0
v -70 -51 0
v -71 -52 0
v -72 -52 0
v -72 -51 0
v -71 -51 0
v -72 -52 0
v -73 -52 0
v -73 -51 0
v -72 -51 0
v -63 -53 0
v -64 -53 0
v -64 -52 0
v -63 -52 0
v -64 -53 0
v -65 -53 0
v -65 -52 0
v -64 -52 0
v -65 -53 0
v -66 -53 0
v -66 -52 0
v -65 -52 0
v -66 -53 0
v -67 -53 0
v -67 -52 0
v -66 -52 0
v -67 -53 0
v -68 -53 0
v -68 -52 0
v -67 -52 0
v -68 -53 0
v -69 -53 0
v -69 -52 0
v -68 -52 0
v -69 -53 0
v -70 -53 0
v -70 -52 0
v -69 -52 0
v -70 -53 0
v -71 -53 0
v -71 -52 0
v -70 -52 0
v -71 -53 0
v -72 -53 0
v -72 -52 0
v -71 -52 0
v -72 -53 0
v -73 -53 0
v -73 -52 0
v -72 -52 0
v -73 -53 0
v -74 -53 0
v -74 -52 0
v -73 -52 0
v -74 -53 0
v -75 -53 0
v -75 -52 0
v -74 -52 0
v -75 -53 0
v -76 -53 0
v -76 -52 0
v -75 -52 0
v -72 -54 0
v -73 -54 0
v -73 -53 0
v -72 -53 0
v -73 -54 0
v -74 -54 0
v -74 -53 0
v -73 -53 0
v -74 -54 0
v -75 -54 0
v -75 -53 0
v -74 -53 0
v -75 -54 0
v -76 -54 0
v -76 -53 0
v -75 -53 0
v -76 -54 0
v -77 -54 0
v -77 -53 0
v -76 -53 0
v -77 -54 0
v -78 -54 0
v -78 -53 0
v -77 -53 0
v -79 -54 0
v -80 -54 0
v -80 -53 0
v -79 -53 0
v -76 -55 0
v -77 -55 0
v -77 -54 0
v -76 -54 0
v -77 -55 0
v -78 -55 0
v -78 -54 0
v -77 -54 0
v -78 -55 0
v -79 -55 0
v -79 -54 0
v -78 -54 0
v -79 -55 0
v -80 -55 0
v -80 -54 0
v -79 -54 0
v -80 -55 0
v -81 -55 0
v -81 -54 0
v -80 -54 0
v -78 -56 0
v -79 -56 0
v -79 -55 0
v -78 -55 0
v -79 -56 0
v -80 -56 0
v -80 -55 0
v -79 -55 0
v -80 -56 0
v -81 -56 0
v -81 -55 0
v -80 -55 0
v -81 -56 0
v -82 -56 0
v -82 -55 0
v -81 -55 0
v -82 -56 0
v -83 -56 0
v -83 -55 0
v -82 -55 0
v -80 -57 0
v -81 -57 0
v -81 -56 0
v -80 -56 0
v -81 -57 0
v -82 -57 0
v -82 -56 0
v -81 -56 0
v -82 -57 0
v -83 -57 0
v -83 -56 0
v -82 -56 0
v -83 -57 0
v -84 -57 0
v -84 -56 0
v -83 -56 0
v -84 -57 0
v -85 -57 0
v -85 -56 0
v -84 -56 0
v -82 -58 0
v -83 -58 0
v -83 -57 0
v -82 -57 0
v -83 -58 0
v -84 -58 0
v -84 -57 0
v -83 -57 0
v -84 -58 0
v -85 -58 0
v -85 -57 0
v -84 -57 0
v -85 -58 0
v -86 -58 0
v -86 -57 0
v -85 -57 0
v -87 -58 0
v -88 -58 0
v -88 -57 0
v -87 -57 0
v -84 -59 0
v -85 -59 0
v -85 -58 0
v -84 -58 0
v -85 -59 0
v -86 -59 0
v -86 -58 0
v -85 -58 0
v -86 -59 0
v -87 -59 0
v -87 -58 0
v -86 -58 0
v -87 -59 0
v -88 -59 0
v -88 -58 0
v -87 -58 0
v -114 -60 0
v -115 -60 0
v -115 -59 0
v -114 -59 0
v -112 -61 0
v -113 -61 0
v -113 -60 0
v -112 -60 0
v -113 -61 0
v -114 -61 0
v -114 -60 0
v -113 -60 0
v -114 -61 0
v -115 -61 0
v -115 -60 0
v -114 -60 0
v -115 -61 0
v -116 -61 0
v -116 -60 0
v -115 -60 0
v -116 -61 0
v -117 -61 0
v -117 -60 0
v -116 -60 0
v -117 -61 0
v -118 -61 0
v -118 -60 0
v -117 -60 0
v -118 -61 0
v -119 -61 0
v -119 -60 0
v -118 -60 0
v -108 -62 0
v -109 -62 0
v -109 -61 0
v -108 -61 0
v -112 -62 0
v -113 -62 0
v -113 -61 0
v -112 -61 0
v -113 -62 0
v -114 -62 0
v -114 -61 0
v -113 -61 0
v -114 -62 0
v -115 -62 0
v -115 -61 0
v -114 -61 0
v -115 -62 0
v -116 -62 0
v -116 -61 0
v -115 -61 0
v -116 -62 0
v -117 -62 0
v -117 -61 0
v -116 -61 0
v -117 -62 0
v -118 -62 0
v -118 -61 0
v -117 -61 0
v -118 -62 0
v -119 -62 0
v -119 -61 0
v -118 -61 0
v -106 -63 0
v -107 -63 0
v -107 -62 0
v -106 -62 0
v -112 -63 0
v -113 -63 0
v -113 -62 0
v -112 -62 0
v -113 -63 0
v -114 -63 0
v -114 -62 0
v -113 -62 0
v -114 -63 0
v -115 -63 0
v -115 -62 0
v -114 -62 0
v -115 -63 0
v -116 -63 0
v -116 -62 0
v -115 -62 0
v -116 -63 0
v -117 -63 0
v -117 -62 0
v -116 -62 0
v -117 -63 0
v -118 -63 0
v -118 -62 0
v -117 -62 0
v -106 -64 0
v -107 -64 0
v -107 -63 0
v -106 -63 0
v -107 -64 0
v -108 -64 0
v -108 -63 0
v -107 -63 0
v -108 -64 0
v -109 -64 0
v -109 -63 0
v -108 -63 0
v -109 -64 0
v -110 -64 0
v -110 -63 0
v -109 -63 0
v -110 -64 0
v -111 -64 0
v -111 -63 0
v -110 -63 0
v -111 -64 0
v -112 -64 0
v -112 -63 0
v -111 -63 0
v -112 -64 0
v -113 -64 0
v -113 -63 0
v -112 -63 0
v -113 -64 0
v -114 -64 0
v -114 -63 0
v -113 -63 0
v -114 -64 0
v -115 -64 0
v -115 -63 0
v -114 -63 0
v -115 -64 0
v -116 -64 0
v -116 -63 0
v -115 -63 0
v -116 -64 0
v -117 -64 0
v -117 -63 0
v -116 -63 0
v -117 -64 0
v -118 -64 0
v -118 -63 0
v -117 -63 0
v -105 -65 0
v -106 -65 0
v -106 -64 0
v -105 -64 0
v -106 -65 0
v -107 -65 0
v -107 -64 0
v -106 -64 0
v -107 -65 0
v -108 -65 0
v -108 -64 0
v -107 -64 0
v -108 -65 0
v -109 -65 0
v -109 -64 0
v -108 -64 0
v -109 -65 0
v -110 -65 0
v -110 -64 0
v -109 -64 0
v -110 -65 0
v -111 -65 0
v -111 -64 0
v -110 -64 0
v -111 -65 0
v -112 -65 0
v -112 -64 0
v -111 -64 0
v -112 -65 0
v -113 -65 0
v -113 -64 0
v -112 -64 0
v -113 -65 0
v -114 -65 0
v -114 -64 0
v -113 -64 0
v -114 -65 0
v -115 -65 0
v -115 -64 0
v -114 -64 0
v -115 -65 0
v -116 -65 0
v -116 -64 0
v -115 -64 0
v -102 -66 0
v -103 -66 0
v -103 -65 0
v -102 -65 0
v -104 -66 0
v -105 -66 0
v -105 -65 0
v -104 -65 0
v -105 -66 0
v -106 -66 0
v -106 -65 0
v -105 -65 0
v -106 -66 0
v -107 -66 0
v -107 -65 0
v -106 -65 0
v -107 -66 0
v -108 -66 0
v -108 -65 0
v -107 -65 0
v -108 -66 0
v -109 -66 0
v -109 -65 0
v -108 -65 0
v -109 -66 0
v -110 -66 0
v -110 -65 0
v -109 -65 0
v -110 -66 0
v -111 -66 0
v -111 -65 0
v -110 -65 0
v -111 -66 0
v -112 -66 0
v -112 -65 0
v -111 -65 0
v -112 -66 0
v -113 -66 0
v -113 -65 0
v -112 -65 0
v -113 -66 0
v -114 -66 0
v -114 -65 0
v -113 -65 0
v -102 -67 0
v -103 -67 0
v -103 -66 0
v -102 -66 0
v -103 -67 0
v -104 -67 0
v -104 -66 0
v -103 -66 0
v -104 -67 0
v -105 -67 0
v -105 -66 0
v -104 -66 0
v -105 -67 0
v -106 -67 0
v -106 -66 0
v -105 -66 0
v -106 -67 0
v -107 -67 0
v -107 -66 0
v -106 -66 0
v -107 -67 0
v -108 -67 0
v -108 -66 0
v -107 -66 0
v -108 -67 0
v -109 -67 0
v -109 -66 0
v -108 -66 0
v -109 -67 0
v -110 -67 0
v -110 -66 0
v -109 -66 0
v -80 -80 0
v -81 -80 0
v -81 -79 0
v -80 -79 0
v -78 -81 0
v -79 -81 0
v -79 -80 0
v -78 -80 0
v -80 -81 0
v -81 -81 0
v -81 -80 0
v -80 -80 0
v -73 -82 0
v -74 -82 0
v -74 -81 0
v -73 -81 0
v -74 -82 0
v -75 -82 0
v -75 -81 0
v -74 -81 0
v -75 -82 0
v -76 -82 0
v -76 -81 0
v -75 -81 0
v -76 -82 0
v -77 -82 0
v -77 -81 0
v -76 -81 0
v -77 -82 0
v -78 -82 0
v -78 -81 0
v -77 -81 0
v -78 -82 0
v -79 -82 0
v -79 -81 0
v -78 -81 0
v -79 -82 0
v -80 -82 0
v -80 -81 0
v -79 -81 0
v -80 -82 0
v -81 -82 0
v -81 -81 0
v -80 -81 0
v -81 -82 0
v -82 -82 0
v -82 -81 0
v -81 -81 0
v -78 -83 0
v -79 -83 0
v -79 -82 0
v -78 -82 0
v -79 -83 0
v -80 -83 0
v -80 -82 0
v -79 -82 0
v -80 -83 0
v -81 -83 0
v -81 -82 0
v -80 -82 0
v -81 -83 0
v -82 -83 0
v -82 -82 0
v -81 -82 0
v -82 -83 0
v -83 -83 0
v -83 -82 0
v -82 -82 0
v -79 -84 0
v -80 -84 0
v -80 -83 0
v -79 -83 0
v -80 -84 0
v -81 -84 0
v -81 -83 0
v -80 -83 0
v -81 -84 0
v -82 -84 0
v -82 -83 0
v -81 -83 0
v -82 -84 0
v -83 -84 0
v -83 -83 0
v -82 -83 0
v -81 -85 0
v -82 -85 0
v -82 -84 0
v -81 -84 0
v -82 -85 0
v -83 -85 0
v -83 -84 0
v -82 -84 0
v -83 -85 0
v -84 -85 0
v -84 -84 0
v -83 -84 0
v -83 -86 0
v -84 -86 0
v -84 -85 0
v -83 -85 0
v -84 -86 0
v -85 -86 0
v -85 -85 0
v -84 -85 0
v -84 -87 0
v -85 -87 0
v -85 -86 0
v -84 -86 0
v -85 -87 0
v -86 -87 0
v -86 -86 0
v -85 -86 0
v -87 -87 0
v -88 -87 0
v -88 -86 0
v -87 -86 0
v -89 -87 0
v -90 -87 0
v -90 -86 0
v -89 -86 0
v -85 -88 0
v -86 -88 0
v -86 -87 0
v -85 -87 0
v -86 -88 0
v -87 -88 0
v -87 -87 0
v -86 -87 0
v -87 -88 0
v -88 -88 0
v -88 -87 0
v -87 -87 0
v -88 -88 0
v -89 -88 0
v -89 -87 0
v -88 -87 0
v -89 -88 0
v -90 -88 0
v -90 -87 0
v -89 -87 0
v -86 -89 0
v -87 -89 0
v -87 -88 0
v -86 -88 0
v -87 -89 0
v -88 -89 0
v -88 -88 0
v -87 -88 0
v -88 -89 0
v -89 -89 0
v -89 -88 0
v -88 -88 0
v -89 -89 0
v -90 -89 0
v -90 -88 0
v -89 -88 0
v -113 -96 0
v -114 -96 0
v -114 -95 0
v -113 -95 0
v -111 -97 0
v -112 -97 0
v -112 -96 0
v -111 -96 0
v -112 -97 0
v -113 -97 0
v -113 -96 0
v -112 -96 0
v -113 -97 0
v -114 -97 0
v -114 -96 0
v -113 -96 0
v -114 -97 0
v -115 -97 0
v -115 -96 0
v -114 -96 0
v -115 -97 0
v -116 -97 0
v -116 -96 0
v -115 -96 0
v -116 -97 0
v -117 -97 0
v -117 -96 0
v -116 -96 0
v -117 -97 0
v -118 -97 0
v -118 -96 0
v -117 -96 0
v -110 -98 0
v -111 -98 0
v -111 -97 0
v -110 -97 0
v -111 -98 0
v -112 -98 0
v -112 -97 0
v -111 -97 0
v -112 -98 0
v -113 -98 0
v -113 -97 0
v -112 -97 0
v -113 -98 0
v -114 -98 0
v -114 -97 0
v -113 -97 0
v -114 -98 0
v -115 -98 0
v -115 -97 0
v -114 -97 0
v -115 -98 0
v -116 -98 0
v -116 -97 0
v -115 -97 0
v -116 -98 0
v -117 -98 0
v -117 -97 0
v -116 -97 0
v -108 -99 0
v -109 -99 0
v -109 -98 0
v -108 -98 0
v -109 -99 0
v -110 -99 0
v -110 -98 0
v -109 -98 0
v -110 -99 0
v -111 -99 0
v -111 -98 0
v -110 -98 0
v -111 -99 0
v -112 -99 0
v -112 -98 0
v -111 -98 0
v -112 -99 0
v -113 -99 0
v -113 -98 0
v -112 -98 0
v -113 -99 0
v -114 -99 0
v -114 -98 0
v -113 -98 0
v -114 -99 0
v -115 -99 0
v -115 -98 0
v -114 -98 0
v -115 -99 0
v -116 -99 0
v -116 -98 0
v -115 -98 0
v -101 -100 0
v -102 -100 0
v -102 -99 0
v -101 -99 0
v -105 -100 0
v -106 -100 0
v -106 -99 0
v -105 -99 0
v -106 -100 0
v -107 -100 0
v -107 -99 0
v -106 -99 0
v -107 -100 0
v -108 -100 0
v -108 -99 0
v -107 -99 0
v -108 -100 0
v -109 -100 0
v -109 -99 0
v -108 -99 0
v -109 -100 0
v -110 -100 0
v -110 -99 0
v -109 -99 0
v -101 -101 0
v -102 -101 0
v -102 -100 0
v -101 -100 0
v -102 -101 0
v -103 -101 0
v -103 -100 0
v -102 -100 0
v -103 -101 0
v -104 -101 0
v -104 -100 0
v -103 -100 0
v -104 -101 0
v -105 -101 0
v -105 -100 0
v -104 -100 0
v -105 -101 0
v -106 -101 0
v -106 -100 0
v -105 -100 0
v -106 -101 0
v -107 -101 0
v -107 -100 0
v -106 -100 0
v -107 -101 0
v -108 -101 0
v -108 -100 0
v -107 -100 0
v -74 -110 0
v -75 -110 0
v -75 -109 0
v -74 -109 0
v -75 -110 0
v -76 -110 0
v -76 -109 0
v -75 -109 0
v -78 -110 0
v -79 -110 0
v -79 -109 0
v -78 -109 0
v -74 -111 0
v -75 -111 0
v -75 -110 0
v -74 -110 0
v -75 -111 0
v -76 -111 0
v -76 -110 0
v -75 -110 0
v -76 -111 0
v -77 -111 0
v -77 -110 0
v -76 -110 0
v -77 -111 0
v -78 -111 0
v -78 -110 0
v -77 -110 0
v -78 -111 0
v -79 -111 0
v -79 -110 0
v -78 -110 0
v -79 -111 0
v -80 -111 0
v -80 -110 0
v -79 -110 0
v -80 -111 0
v -81 -111 0
v -81 -110 0
v -80 -110 0
v -81 -111 0
v -82 -111 0
v -82 -110 0
v -81 -110 0
v -82 -111 0
v -83 -111 0
v -83 -110 0
v -82 -110 0
v -83 -111 0
v -84 -111 0
v -84 -110 0
v -83 -110 0
v -84 -111 0
v -85 -111 0
v -85 -110 0
v -84 -110 0
v -79 -112 0
v -80 -112 0
v -80 -111 0
v -79 -111 0
v -80 -112 0
v -81 -112 0
v -81 -111 0
v -80 -111 0
v -81 -112 0
v -82 -112 0
v -82 -111 0
v -81 -111 0
v -82 -112 0
v -83 -112 0
v -83 -111 0
v -82 -111 0
v -83 -112 0
v -84 -112 0
v -84 -111 0
v -83 -111 0
v -84 -112 0
v -85 -112 0
v -85 -111 0
v -84 -111 0
v -83 -113 0
v -84 -113 0
v -84 -112 0
v -83 -112 0
v -84 -113 0
v -85 -113 0
v -85 -112 0
v -84 -112 0
v -87 -113 0
v -88 -113 0
v -88 -112 0
v -87 -112 0
v -83 -114 0
v -84 -114 0
v -84 -113 0
v -83 -113 0
v -84 -114 0
v -85 -114 0
v -85 -113 0
v -84 -113 0
v -85 -114 0
v -86 -114 0
v -86 -113 0
v -85 -113 0
v -86 -114 0
v -87 -114 0
v -87 -113 0
v -86 -113 0
v -87 -114 0
v -88 -114 0
v -88 -113 0
v -87 -113 0
v -111 -122 0
v -112 -122 0
v -112 -121 0
v -111 -121 0
v -112 -122 0
v -113 -122 0
v -113 -121 0
v -112 -121 0
v -108 -123 0
v -109 -123 0
v -109 -122 0
v -108 -122 0
v -109 -123 0
v -110 -123 0
v -110 -122 0
v -109 -122 0
v -110 -123 0
v -111 -123 0
v -111 -122 0
v -110 -122 0
v -111 -123 0
v -112 -123 0
v -112 -122 0
v -111 -122 0
v -112 -123 0
v -113 -123 0
v -113 -122 0
v -112 -122 0
v -113 -123 0
v -114 -123 0
v -114 -122 0
v -113 -122 0
v -114 -123 0
v -115 -123 0
v -115 -122 0
v -114 -122 0
v -115 -123 0
v -116 -123 0
v -116 -122 0
v -115 -122 0
v -108 -124 0
v -109 -124 0
v -109 -123 0
v -108 -123 0
v -109 -124 0
v -110 -124 0
v -110 -123 0
v -109 -123 0
v -110 -124 0
v -111 -124 0
v -111 -123 0
v -110 -123 0
v -111 -124 0
v -112 -124 0
v -112 -123 0
v -111 -123 0
v -112 -124 0
v -113 -124 0
v -113 -123 0
v -112 -123 0
v -113 -124 0
v -114 -124 0
v -114 -123 0
v -113 -123 0
v -114 -124 0
v -115 -124 0
v -115 -123 0
v -114 -123 0
v -108 -125 0
v -109 -125 0
v -109 -124 0
v -108 -124 0
v -109 -125 0
v -110 -125 0
v -110 -124 0
v -109 -124 0
v -110 -125 0
v -111 -125 0
v -111 -124 0
v -110 -124 0
v -111 -125 0
v -112 -125 0
v -112 -124 0
v -111 -124 0
v -107 -126 0
v -108 -126 0
v -108 -125 0
v -107 -125 0
v -108 -126 0
v -109 -126 0
v -109 -125 0
v -108 -125 0
v -104 -127 0
v -105 -127 0
v -105 -126 0
v -104 -126 0
v -106 -127 0
v -107 -127 0
v -107 -126 0
v -106 -126 0
v -107 -127 0
v -108 -127 0
v -108 -126 0
v -107 -126 0
v -104 -128 0
v -105 -128 0
v -105 -127 0
v -104 -127 0
v -105 -128 0
v -106 -128 0
v -106 -127 0
v -105 -127 0
v -106 -128 0
v -107 -128 0
v -107 -127 0
v -106 -127 0
v -92 -144 0
v -93 -144 0
v -93 -143 0
v -92 -143 0
v -97 -144 0
v -98 -144 0
v -98 -143 0
v -97 -143 0
v -92 -145 0
v -93 -145 0
v -93 -144 0
v -92 -144 0
v -97 -145 0
v -98 -145 0
v -98 -144 0
v -97 -144 0
v -92 -146 0
v -93 -146 0
v -93 -145 0
v -92 -145 0
v -93 -146 0
v -94 -146 0
v -94 -145 0
v -93 -145 0
v -94 -146 0
v -95 -146 0
v -95 -145 0
v -94 -145 0
v -95 -146 0
v -96 -146 0
v -96 -145 0
v -95 -145 0
v -96 -146 0
v -97 -146 0
v -97 -145 0
v -96 -145 0
v -97 -146 0
v -98 -146 0
v -98 -145 0
v -97 -145 0
v -92 -147 0
v -93 -147 0
v -93 -146 0
v -92 -146 0
v -93 -147 0
v -94 -147 0
v -94 -146 0
v -93 -146 0
v -94 -147 0
v -95 -147 0
v -95 -146 0
v -94 -146 0
v -95 -147 0
v -96 -147 0
v -96 -146 0
v -95 -146 0
v -96 -147 0
v -97 -147 0
v -97 -146 0
v -96 -146 0
v -97 -147 0
v -98 -147 0
v -98 -146 0
v -97 -146 0

# Texture cooridinates (Count = 44)
vt 0.8235294 0.25
vt 0.8823529 0.25
vt 0.8823529 0.375
vt 0.8235294 0.375
vt 0.9411765 0.25
vt 0.9411765 0.375
vt 0.8823529 0.125
vt 0.9411765 0.125
vt 0.5882353 0.625
vt 0.6470588 0.625
vt 0.6470588 0.75
vt 0.5882353 0.75
vt 0.7058824 0.625
vt 0.7058824 0.75
vt 0.7647059 0.625
vt 0.7647059 0.75
vt 0.7058824 0.875
vt 0.6470588 0.875
vt 0.5882353 0.5
vt 0.6470588 0.5
vt 0.7058824 0.5
vt 0.8235294 0.875
vt 0.8823529 0.875
vt 0.8823529 1
vt 0.8235294 1
vt 0.8235294 0.125
vt 0.7647059 0.5
vt 1 0.125
vt 1 0.25
vt 0.8235294 0.625
vt 0.8235294 0.75
vt 0.4117647 0.5
vt 0.4705882 0.5
vt 0.4705882 0.625
vt 0.4117647 0.625
vt 1 0.375
vt 0.4705882 0.125
vt 0.5294118 0.125
vt 0.5294118 0.25
vt 0.4705882 0.25
vt 0.8235294 0.5
vt 0.5294118 0.625
vt 0.5294118 0.75
vt 0.4705882 0.75

# Normal
vn 0 0 -1

# Mesh description
g Level_2_mesh_0001

# Faces
f 1/1/1 2/2/1 3/3/1 4/4/1
f 5/2/1 6/5/1 7/6/1 8/3/1
f 9/7/1 10/8/1 11/5/1 12/2/1
f 13/9/1 14/10/1 15/11/1 16/12/1
f 17/10/1 18/13/1 19/14/1 20/11/1
f 21/10/1 22/13/1 23/14/1 24/11/1
f 25/10/1 26/13/1 27/14/1 28/11/1
f 29/10/1 30/13/1 31/14/1 32/11/1
f 33/10/1 34/13/1 35/14/1 36/11/1
f 37/10/1 38/13/1 39/14/1 40/11/1
f 41/10/1 42/13/1 43/14/1 44/11/1
f 45/13/1 46/15/1 47/16/1 48/14/1
f 49/9/1 50/10/1 51/11/1 52/12/1
f 53/11/1 54/14/1 55/17/1 56/18/1
f 57/11/1 58/14/1 59/17/1 60/18/1
f 61/11/1 62/14/1 63/17/1 64/18/1
f 65/11/1 66/14/1 67/17/1 68/18/1
f 69/11/1 70/14/1 71/17/1 72/18/1
f 73/11/1 74/14/1 75/17/1 76/18/1
f 77/11/1 78/14/1 79/17/1 80/18/1
f 81/11/1 82/14/1 83/17/1 84/18/1
f 85/11/1 86/14/1 87/17/1 88/18/1
f 89/10/1 90/13/1 91/14/1 92/11/1
f 93/10/1 94/13/1 95/14/1 96/11/1
f 97/13/1 98/15/1 99/16/1 100/14/1
f 101/19/1 102/20/1 103/10/1 104/9/1
f 105/11/1 106/14/1 107/17/1 108/18/1
f 109/11/1 110/14/1 111/17/1 112/18/1
f 113/11/1 114/14/1 115/17/1 116/18/1
f 117/10/1 118/13/1 119/14/1 120/11/1
f 121/13/1 122/15/1 123/16/1 124/14/1
f 125/20/1 126/21/1 127/13/1 128/10/1
f 129/19/1 130/20/1 131/10/1 132/9/1
f 133/11/1 134/14/1 135/17/1 136/18/1
f 137/10/1 138/13/1 139/14/1 140/11/1
f 141/10/1 142/13/1 143/14/1 144/11/1
f 145/13/1 146/15/1 147/16/1 148/14/1
f 149/19/1 150/20/1 151/10/1 152/9/1
f 153/11/1 154/14/1 155/17/1 156/18/1
f 157/11/1 158/14/1 159/17/1 160/18/1
f 161/10/1 162/13/1 163/14/1 164/11/1
f 165/13/1 166/15/1 167/16/1 168/14/1
f 169/19/1 170/20/1 171/10/1 172/9/1
f 173/11/1 174/14/1 175/17/1 176/18/1
f 177/11/1 178/14/1 179/17/1 180/18/1
f 181/10/1 182/13/1 183/14/1 184/11/1
f 185/13/1 186/15/1 187/16/1 188/14/1
f 189/19/1 190/20/1 191/10/1 192/9/1
f 193/11/1 194/14/1 195/17/1 196/18/1
f 197/11/1 198/14/1 199/17/1 200/18/1
f 201/13/1 202/15/1 203/16/1 204/14/1
f 205/22/1 206/23/1 207/24/1 208/25/1
f 209/19/1 210/20/1 211/10/1 212/9/1
f 213/11/1 214/14/1 215/17/1 216/18/1
f 217/10/1 218/13/1 219/14/1 220/11/1
f 221/13/1 222/15/1 223/16/1 224/14/1
f 225/26/1 226/7/1 227/2/1 228/1/1
f 229/9/1 230/10/1 231/11/1 232/12/1
f 233/10/1 234/13/1 235/14/1 236/11/1
f 237/10/1 238/13/1 239/14/1 240/11/1
f 241/10/1 242/13/1 243/14/1 244/11/1
f 245/10/1 246/13/1 247/14/1 248/11/1
f 249/10/1 250/13/1 251/14/1 252/11/1
f 253/13/1 254/15/1 255/16/1 256/14/1
f 257/20/1 258/21/1 259/13/1 260/10/1
f 261/19/1 262/20/1 263/10/1 264/9/1
f 265/11/1 266/14/1 267/17/1 268/18/1
f 269/11/1 270/14/1 271/17/1 272/18/1
f 273/11/1 274/14/1 275/17/1 276/18/1
f 277/11/1 278/14/1 279/17/1 280/18/1
f 281/11/1 282/14/1 283/17/1 284/18/1
f 285/21/1 286/27/1 287/15/1 288/13/1
f 289/8/1 290/28/1 291/29/1 292/5/1
f 293/19/1 294/20/1 295/10/1 296/9/1
f 297/11/1 298/14/1 299/17/1 300/18/1
f 301/11/1 302/14/1 303/17/1 304/18/1
f 305/11/1 306/14/1 307/17/1 308/18/1
f 309/11/1 310/14/1 311/17/1 312/18/1
f 313/21/1 314/27/1 315/15/1 316/13/1
f 317/9/1 318/10/1 319/11/1 320/12/1
f 321/10/1 322/13/1 323/14/1 324/11/1
f 325/10/1 326/13/1 327/14/1 328/11/1
f 329/10/1 330/13/1 331/14/1 332/11/1
f 333/10/1 334/13/1 335/14/1 336/11/1
f 337/10/1 338/13/1 339/14/1 340/11/1
f 341/11/1 342/14/1 343/17/1 344/18/1
f 345/11/1 346/14/1 347/17/1 348/18/1
f 349/11/1 350/14/1 351/17/1 352/18/1
f 353/11/1 354/14/1 355/17/1 356/18/1
f 357/11/1 358/14/1 359/17/1 360/18/1
f 361/21/1 362/27/1 363/15/1 364/13/1
f 365/9/1 366/10/1 367/11/1 368/12/1
f 369/11/1 370/14/1 371/17/1 372/18/1
f 373/11/1 374/14/1 375/17/1 376/18/1
f 377/11/1 378/14/1 379/17/1 380/18/1
f 381/11/1 382/14/1 383/17/1 384/18/1
f 385/11/1 386/14/1 387/17/1 388/18/1
f 389/11/1 390/14/1 391/17/1 392/18/1
f 393/11/1 394/14/1 395/17/1 396/18/1
f 397/11/1 398/14/1 399/17/1 400/18/1
f 401/11/1 402/14/1 403/17/1 404/18/1
f 405/21/1 406/27/1 407/15/1 408/13/1
f 409/22/1 410/23/1 411/24/1 412/25/1
f 413/9/1 414/10/1 415/11/1 416/12/1
f 417/11/1 418/14/1 419/17/1 420/18/1
f 421/11/1 422/14/1 423/17/1 424/18/1
f 425/11/1 426/14/1 427/17/1 428/18/1
f 429/11/1 430/14/1 431/17/1 432/18/1
f 433/11/1 434/14/1 435/17/1 436/18/1
f 437/11/1 438/14/1 439/17/1 440/18/1
f 441/11/1 442/14/1 443/17/1 444/18/1
f 445/11/1 446/14/1 447/17/1 448/18/1
f 449/21/1 450/27/1 451/15/1 452/13/1
f 453/9/1 454/10/1 455/11/1 456/12/1
f 457/10/1 458/13/1 459/14/1 460/11/1
f 461/11/1 462/14/1 463/17/1 464/18/1
f 465/11/1 466/14/1 467/17/1 468/18/1
f 469/11/1 470/14/1 471/17/1 472/18/1
f 473/11/1 474/14/1 475/17/1 476/18/1
f 477/11/1 478/14/1 479/17/1 480/18/1
f 481/21/1 482/27/1 483/15/1 484/13/1
f 485/20/1 486/21/1 487/13/1 488/10/1
f 489/20/1 490/21/1 491/13/1 492/10/1
f 493/15/1 494/30/1 495/31/1 496/16/1
f 497/9/1 498/10/1 499/11/1 500/12/1
f 501/10/1 502/13/1 503/14/1 504/11/1
f 505/10/1 506/13/1 507/14/1 508/11/1
f 509/10/1 510/13/1 511/14/1 512/11/1
f 513/10/1 514/13/1 515/14/1 516/11/1
f 517/10/1 518/13/1 519/14/1 520/11/1
f 521/10/1 522/13/1 523/14/1 524/11/1
f 525/11/1 526/14/1 527/17/1 528/18/1
f 529/13/1 530/15/1 531/16/1 532/14/1
f 533/19/1 534/20/1 535/10/1 536/9/1
f 537/11/1 538/14/1 539/17/1 540/18/1
f 541/32/1 542/33/1 543/34/1 544/35/1
f 545/11/1 546/14/1 547/17/1 548/18/1
f 549/13/1 550/15/1 551/16/1 552/14/1
f 553/19/1 554/20/1 555/10/1 556/9/1
f 557/11/1 558/14/1 559/17/1 560/18/1
f 561/11/1 562/14/1 563/17/1 564/18/1
f 565/21/1 566/27/1 567/15/1 568/13/1
f 569/19/1 570/20/1 571/10/1 572/9/1
f 573/11/1 574/14/1 575/17/1 576/18/1
f 577/13/1 578/15/1 579/16/1 580/14/1
f 581/19/1 582/20/1 583/10/1 584/9/1
f 585/13/1 586/15/1 587/16/1 588/14/1
f 589/19/1 590/20/1 591/10/1 592/9/1
f 593/13/1 594/15/1 595/16/1 596/14/1
f 597/5/1 598/29/1 599/36/1 600/6/1
f 601/22/1 602/23/1 603/24/1 604/25/1
f 605/19/1 606/20/1 607/10/1 608/9/1
f 609/10/1 610/13/1 611/14/1 612/11/1
f 613/10/1 614/13/1 615/14/1 616/11/1
f 617/10/1 618/13/1 619/14/1 620/11/1
f 621/13/1 622/15/1 623/16/1 624/14/1
f 625/19/1 626/20/1 627/10/1 628/9/1
f 629/11/1 630/14/1 631/17/1 632/18/1
f 633/11/1 634/14/1 635/17/1 636/18/1
f 637/21/1 638/27/1 639/15/1 640/13/1
f 641/20/1 642/21/1 643/13/1 644/10/1
f 645/9/1 646/10/1 647/11/1 648/12/1
f 649/10/1 650/13/1 651/14/1 652/11/1
f 653/10/1 654/13/1 655/14/1 656/11/1
f 657/10/1 658/13/1 659/14/1 660/11/1
f 661/10/1 662/13/1 663/14/1 664/11/1
f 665/10/1 666/13/1 667/14/1 668/11/1
f 669/13/1 670/15/1 671/16/1 672/14/1
f 673/9/1 674/10/1 675/11/1 676/12/1
f 677/11/1 678/14/1 679/17/1 680/18/1
f 681/11/1 682/14/1 683/17/1 684/18/1
f 685/37/1 686/38/1 687/39/1 688/40/1
f 689/11/1 690/14/1 691/17/1 692/18/1
f 693/11/1 694/14/1 695/17/1 696/18/1
f 697/21/1 698/27/1 699/15/1 700/13/1
f 701/9/1 702/10/1 703/11/1 704/12/1
f 705/10/1 706/13/1 707/14/1 708/11/1
f 709/11/1 710/14/1 711/17/1 712/18/1
f 713/11/1 714/14/1 715/17/1 716/18/1
f 717/11/1 718/14/1 719/17/1 720/18/1
f 721/11/1 722/14/1 723/17/1 724/18/1
f 725/11/1 726/14/1 727/17/1 728/18/1
f 729/21/1 730/27/1 731/15/1 732/13/1
f 733/22/1 734/23/1 735/24/1 736/25/1
f 737/26/1 738/7/1 739/2/1 740/1/1
f 741/9/1 742/10/1 743/11/1 744/12/1
f 745/10/1 746/13/1 747/14/1 748/11/1
f 749/11/1 750/14/1 751/17/1 752/18/1
f 753/21/1 754/27/1 755/15/1 756/13/1
f 757/9/1 758/10/1 759/11/1 760/12/1
f 761/10/1 762/13/1 763/14/1 764/11/1
f 765/10/1 766/13/1 767/14/1 768/11/1
f 769/10/1 770/13/1 771/14/1 772/11/1
f 773/10/1 774/13/1 775/14/1 776/11/1
f 777/11/1 778/14/1 779/17/1 780/18/1
f 781/21/1 782/27/1 783/15/1 784/13/1
f 785/9/1 786/10/1 787/11/1 788/12/1
f 789/10/1 790/13/1 791/14/1 792/11/1
f 793/20/1 794/21/1 795/13/1 796/10/1
f 797/19/1 798/20/1 799/10/1 800/9/1
f 801/11/1 802/14/1 803/17/1 804/18/1
f 805/10/1 806/13/1 807/14/1 808/11/1
f 809/10/1 810/13/1 811/14/1 812/11/1
f 813/10/1 814/13/1 815/14/1 816/11/1
f 817/10/1 818/13/1 819/14/1 820/11/1
f 821/10/1 822/13/1 823/14/1 824/11/1
f 825/10/1 826/13/1 827/14/1 828/11/1
f 829/10/1 830/13/1 831/14/1 832/11/1
f 833/13/1 834/15/1 835/16/1 836/14/1
f 837/26/1 838/7/1 839/2/1 840/1/1
f 841/19/1 842/20/1 843/10/1 844/9/1
f 845/11/1 846/14/1 847/17/1 848/18/1
f 849/11/1 850/14/1 851/17/1 852/18/1
f 853/11/1 854/14/1 855/17/1 856/18/1
f 857/11/1 858/14/1 859/17/1 860/18/1
f 861/13/1 862/15/1 863/16/1 864/14/1
f 865/19/1 866/20/1 867/10/1 868/9/1
f 869/21/1 870/27/1 871/15/1 872/13/1
f 873/22/1 874/23/1 875/24/1 876/25/1
f 877/19/1 878/20/1 879/10/1 880/9/1
f 881/11/1 882/14/1 883/17/1 884/18/1
f 885/10/1 886/13/1 887/14/1 888/11/1
f 889/10/1 890/13/1 891/14/1 892/11/1
f 893/13/1 894/15/1 895/16/1 896/14/1
f 897/20/1 898/21/1 899/13/1 900/10/1
f 901/20/1 902/21/1 903/13/1 904/10/1
f 905/9/1 906/10/1 907/11/1 908/12/1
f 909/10/1 910/13/1 911/14/1 912/11/1
f 913/10/1 914/13/1 915/14/1 916/11/1
f 917/10/1 918/13/1 919/14/1 920/11/1
f 921/10/1 922/13/1 923/14/1 924/11/1
f 925/10/1 926/13/1 927/14/1 928/11/1
f 929/10/1 930/13/1 931/14/1 932/11/1
f 933/13/1 934/15/1 935/16/1 936/14/1
f 937/19/1 938/20/1 939/10/1 940/9/1
f 941/11/1 942/14/1 943/17/1 944/18/1
f 945/11/1 946/14/1 947/17/1 948/18/1
f 949/11/1 950/14/1 951/17/1 952/18/1
f 953/11/1 954/14/1 955/17/1 956/18/1
f 957/11/1 958/14/1 959/17/1 960/18/1
f 961/21/1 962/27/1 963/15/1 964/13/1
f 965/19/1 966/20/1 967/10/1 968/9/1
f 969/11/1 970/14/1 971/17/1 972/18/1
f 973/11/1 974/14/1 975/17/1 976/18/1
f 977/21/1 978/27/1 979/15/1 980/13/1
f 981/9/1 982/10/1 983/11/1 984/12/1
f 985/21/1 986/27/1 987/15/1 988/13/1
f 989/22/1 990/23/1 991/24/1 992/25/1
f 993/9/1 994/10/1 995/11/1 996/12/1
f 997/21/1 998/27/1 999/15/1 1000/13/1
f 1001/9/1 1002/10/1 1003/11/1 1004/12/1
f 1005/10/1 1006/13/1 1007/14/1 1008/11/1
f 1009/21/1 1010/27/1 1011/15/1 1012/13/1
f 1013/22/1 1014/23/1 1015/24/1 1016/25/1
f 1017/22/1 1018/23/1 1019/24/1 1020/25/1
f 1021/15/1 1022/30/1 1023/31/1 1024/16/1
f 1025/15/1 1026/30/1 1027/31/1 1028/16/1
f 1029/27/1 1030/41/1 1031/30/1 1032/15/1
f 1033/26/1 1034/7/1 1035/2/1 1036/1/1
f 1037/7/1 1038/8/1 1039/5/1 1040/2/1
f 1041/2/1 1042/5/1 1043/6/1 1044/3/1
f 1045/1/1 1046/2/1 1047/3/1 1048/4/1
f 1049/27/1 1050/41/1 1051/30/1 1052/15/1
f 1053/19/1 1054/20/1 1055/10/1 1056/9/1
f 1057/34/1 1058/42/1 1059/43/1 1060/44/1
f 1061/34/1 1062/42/1 1063/43/1 1064/44/1
f 1065/34/1 1066/42/1 1067/43/1 1068/44/1
f 1069/34/1 1070/42/1 1071/43/1 1072/44/1
f 1073/21/1 1074/27/1 1075/15/1 1076/13/1

